<?xml version="1.0" standalone="no"?><!DOCTYPE svg PUBLIC "-//W3C//DTD SVG 1.1//EN" "http://www.w3.org/Graphics/SVG/1.1/DTD/svg11.dtd"><svg t="1606486707848" class="icon" viewBox="0 0 1024 1024" version="1.1" xmlns="http://www.w3.org/2000/svg" p-id="9114" xmlns:xlink="http://www.w3.org/1999/xlink" width="200" height="200"><defs><style type="text/css"></style></defs><path d="M290.816 37.888C619.52 80.896 506.88 193.536 614.4 370.688c162.816 267.264 344.064 297.984 344.064 297.984L485.376 990.208l-133.12-103.424-115.712-196.608-36.864-336.896 8.192-246.784 82.944-68.608z" fill="#E3E2E0" p-id="9115"></path><path d="M252.928 718.848S665.6 660.48 769.024 561.152c35.84 30.72 94.208 77.824 169.984 103.424-108.544 95.232-167.936 131.072-167.936 131.072L481.28 1000.448 345.088 893.952l-92.16-175.104z" fill="#BAB9B7" p-id="9116"></path><path d="M188.416 268.288L26.624 302.08l162.816 51.2z" fill="#FFC300" p-id="9117"></path><path d="M189.44 378.88c-3.072 0-5.12 0-8.192-1.024l-161.792-51.2C8.192 323.584 1.024 312.32 2.048 301.056c1.024-11.264 9.216-21.504 20.48-23.552L184.32 243.712c7.168-2.048 15.36 0 21.504 5.12 6.144 5.12 9.216 12.288 9.216 19.456v86.016c0 8.192-4.096 16.384-10.24 20.48-5.12 3.072-10.24 4.096-15.36 4.096z m-62.464-71.68l35.84 11.264v-19.456l-35.84 8.192z" fill="#631B14" p-id="9118"></path><path d="M476.16 1020.928c-5.12 0-9.216-1.024-14.336-4.096C282.624 901.12 190.464 713.728 169.984 429.056 160.768 297.984 144.384 53.248 302.08 10.24c175.104-48.128 275.456 136.192 349.184 270.336 8.192 14.336 15.36 28.672 23.552 41.984 7.168 12.288 3.072 27.648-9.216 34.816-12.288 7.168-27.648 3.072-34.816-9.216-7.168-13.312-15.36-27.648-23.552-43.008-69.632-125.952-154.624-282.624-290.816-245.76-117.76 31.744-102.4 249.856-94.208 365.568 18.432 263.168 97.28 431.104 254.976 538.624 93.184-60.416 369.664-250.88 468.992-320.512-38.912-20.48-97.28-57.344-157.696-118.784-10.24-10.24-9.216-26.624 1.024-35.84 10.24-10.24 26.624-9.216 35.84 1.024 90.112 92.16 180.224 125.952 181.248 125.952 9.216 3.072 15.36 11.264 16.384 20.48 1.024 9.216-3.072 18.432-11.264 24.576-17.408 12.288-429.056 297.984-522.24 356.352-4.096 2.048-8.192 4.096-13.312 4.096z" fill="#631B14" p-id="9119"></path><path d="M743.424 466.944c-5.12 0-10.24-1.024-14.336-5.12-1.024-1.024-26.624-18.432-48.128-48.128-8.192-11.264-6.144-27.648 5.12-35.84 11.264-8.192 27.648-6.144 35.84 5.12C738.304 405.504 757.76 419.84 757.76 419.84c11.264 8.192 14.336 24.576 6.144 35.84-4.096 8.192-12.288 11.264-20.48 11.264z" fill="#631B14" p-id="9120"></path><path d="M113.664 329.728s-12.288 5.12-25.6 30.72c-22.528 43.008-7.168 52.224 10.24 61.44 33.792 17.408 30.72-8.192 37.888-31.744 6.144-23.552 23.552-44.032 23.552-47.104l-46.08-13.312z" fill="#FF6464" p-id="9121"></path><path d="M116.736 452.608c-13.312 0-25.6-6.144-30.72-9.216-26.624-14.336-51.2-36.864-20.48-95.232 16.384-31.744 32.768-40.96 38.912-43.008 5.12-2.048 11.264-2.048 16.384-1.024l45.056 13.312c10.24 3.072 18.432 13.312 18.432 24.576 0 9.216-4.096 14.336-9.216 22.528-5.12 8.192-12.288 19.456-15.36 31.744-1.024 3.072-2.048 7.168-2.048 10.24-3.072 14.336-7.168 33.792-24.576 41.984-6.144 3.072-11.264 4.096-16.384 4.096zM102.4 394.24c1.024 1.024 3.072 2.048 5.12 3.072 1.024-4.096 2.048-9.216 3.072-13.312 2.048-9.216 6.144-17.408 10.24-25.6h-1.024c-2.048 3.072-5.12 7.168-9.216 14.336-6.144 13.312-8.192 19.456-8.192 21.504z" fill="#631B14" p-id="9122"></path><path d="M124.550823 250.774259a24.576 30.72 78.579 1 0 60.223406-12.166141 24.576 30.72 78.579 1 0-60.223406 12.166141Z" fill="#FFFFFF" p-id="9123"></path><path d="M152.576 295.936c-25.6 0-48.128-16.384-52.224-39.936-5.12-27.648 14.336-54.272 45.056-60.416 30.72-6.144 59.392 11.264 64.512 38.912 5.12 27.648-14.336 54.272-45.056 60.416-4.096 0-8.192 1.024-12.288 1.024z m8.192-50.176z" fill="#631B14" p-id="9124"></path><path d="M397.312 185.344c-4.096 18.432-20.48 32.768-40.96 32.768-23.552 0-41.984-18.432-41.984-41.984 0-9.216 3.072-17.408 8.192-23.552-41.984 5.12-73.728 39.936-73.728 82.944 0 46.08 37.888 83.968 83.968 83.968 46.08 0 83.968-37.888 83.968-83.968-2.048-18.432-9.216-35.84-19.456-50.176z" fill="#FFFFFF" p-id="9125"></path><path d="M356.352 218.112c20.48 0 36.864-14.336 40.96-32.768-15.36-20.48-38.912-32.768-66.56-32.768-3.072 0-6.144 0-9.216 1.024-5.12 7.168-8.192 15.36-8.192 23.552 0 22.528 19.456 40.96 43.008 40.96z" fill="#771B14" p-id="9126"></path></svg>